# xmcd
#
# Track frame offsets: 
#        150
#        16196
#        24127
#        41489
#        51951
#        65871
#        83464
#        91198
#        105125
#        112420
#        121818
#        135302
#        145889
#        160309
#
# Disc length: 2325 seconds
#
# Revision: 0
# Processed by: cddbd v1.5.2PL0 Copyright (c) Steve Scherf et al.
# Submitted via: ExactAudioCopy v0.99pb4
#
DISCID=a909130e
DTITLE=Antonio Carlos Jobim and Elis Regina - Elis and Tom
DYEAR=2008
DGENRE=Latin
TTITLE0=Aguas De Marco
TTITLE1=Pois E
TTITLE2=So Tinha De Ser Com Voce
TTITLE3=Modinha
TTITLE4=Triste
TTITLE5=Corcovado
TTITLE6=O Que Tinha De Ser
TTITLE7=Retrato Em Branco E Preto
TTITLE8=Brigas, Nunca Mais
TTITLE9=Por Toda A Minha Vida
TTITLE10=Fotografia
TTITLE11=Soneto De Separacao
TTITLE12=Chovendo Na Roseira
TTITLE13=Inutil Paisagem
EXTD=
EXTT0=
EXTT1=
EXTT2=
EXTT3=
EXTT4=
EXTT5=
EXTT6=
EXTT7=
EXTT8=
EXTT9=
EXTT10=
EXTT11=
EXTT12=
EXTT13=
PLAYORDER=
